<svg xmlns="http://www.w3.org/2000/svg" width="54mm" height="188.119" viewBox="0 0 54 49.773"><path d="M25.678 14.011 49.333.414A3.115 3.115 0 0 1 54 3.114v27.808a5.582 5.582 0 0 1-2.8 4.84L27.545 49.359a3.115 3.115 0 0 1-4.667-2.7V18.85a5.582 5.582 0 0 1 2.8-4.84z" style="fill:#3e474b;fill-opacity:1;stroke-width:.22665;stroke-linecap:round;stroke-linejoin:round"/><path d="m43.526 32.08 5.569-3.205a.094.094 0 0 1 .14.079l.06 1.78a.195.195 0 0 1-.097.175l-5.568 3.205a.094.094 0 0 1-.14-.078l-.061-1.78a.195.195 0 0 1 .097-.175z" style="display:inline;fill:#45b34f;stroke-width:.118768;stroke-linecap:round;stroke-linejoin:round"/><path d="m71.285 146.056 2.01 8.127-1.493 5.93 3.926 3.91 2.178 8.809 11.495 4.81 4.762 4.743v-19.067l-3.845-3.829-1.11 4.416z" style="fill:#3e474b;fill-opacity:1;stroke:none;stroke-width:.793752;stroke-linecap:butt;stroke-linejoin:miter;stroke-miterlimit:4;stroke-dasharray:none;stroke-opacity:1" transform="translate(-71.285 -137.373)"/><path d="m77.906 172.832 11.495 4.81-6.147-6.123z" style="fill:#515b60;fill-opacity:1;stroke:none;stroke-width:.265;stroke-linecap:round;stroke-linejoin:bevel;stroke-miterlimit:4;stroke-dasharray:none;stroke-opacity:1" transform="translate(-71.285 -137.373)"/><path d="m94.163 168.842-22.878-22.786 4.443 17.967 7.526 7.496z" style="fill:#515b60;fill-opacity:1;stroke:none;stroke-width:.265;stroke-linecap:round;stroke-linejoin:bevel;stroke-miterlimit:4;stroke-dasharray:none;stroke-opacity:1" transform="translate(-71.285 -137.373)"/><path d="m117.041 146.056-2.01 8.127 1.494 5.93-3.927 3.91-2.178 8.809-11.495 4.81-4.762 4.742v-19.066l3.846-3.829 1.11 4.416z" style="fill:#b1bbc0;fill-opacity:1;stroke:none;stroke-width:.264583px;stroke-linecap:butt;stroke-linejoin:miter;stroke-opacity:1" transform="translate(-71.285 -137.373)"/><g style="fill:#fff;fill-opacity:1"><path d="m110.42 172.832-11.495 4.81 6.147-6.123z" style="fill:#fff;fill-opacity:1;stroke:none;stroke-width:.265;stroke-linecap:round;stroke-linejoin:bevel;stroke-miterlimit:4;stroke-dasharray:none;stroke-opacity:1" transform="translate(-71.285 -137.373)"/><path d="m94.163 168.842 22.878-22.786-4.442 17.967-7.527 7.496z" style="fill:#fff;fill-opacity:1;stroke:none;stroke-width:.265;stroke-linecap:round;stroke-linejoin:bevel;stroke-miterlimit:4;stroke-dasharray:none;stroke-opacity:1" transform="translate(-71.285 -137.373)"/></g></svg>