<svg xmlns="http://www.w3.org/2000/svg" width="205.081" height="205.081" viewBox="0 0 54.261 54.261"><g style="display:inline;stroke-width:1.16667"><g style="stroke-width:.64503"><path d="m1533.134-889.5 2.942-2.928.85 3.378 13.708-13.654-1.537 6.216 1.142 4.536-3.003 2.992-1.666 6.738-8.793 3.68-3.643 3.627-3.642-3.628-8.793-3.68-1.666-6.737-3.004-2.992 1.142-4.536-1.537-6.216 13.71 13.654.85-3.378z" style="fill:#3e474b;fill-opacity:1;stroke:none;stroke-width:.51199;stroke-linecap:butt;stroke-linejoin:miter;stroke-miterlimit:4;stroke-dasharray:none;stroke-opacity:1" transform="translate(-2349.716 1405.068)scale(1.55032)"/><g style="fill:#515b60;fill-opacity:1;stroke-width:.64503"><path d="m1545.57-882.222-8.793 3.679 4.702-4.683z" style="fill:#515b60;fill-opacity:1;stroke:none;stroke-width:.170933;stroke-linecap:round;stroke-linejoin:bevel;stroke-miterlimit:4;stroke-dasharray:none;stroke-opacity:1" transform="translate(-2349.716 1405.068)scale(1.55032)"/><path d="m1533.134-885.274 17.5-17.43-3.398 13.744-5.757 5.734zm-12.435 3.052 8.793 3.679-4.702-4.683z" style="fill:#515b60;fill-opacity:1;stroke:none;stroke-width:.170933;stroke-linecap:round;stroke-linejoin:bevel;stroke-miterlimit:4;stroke-dasharray:none;stroke-opacity:1" transform="translate(-2349.716 1405.068)scale(1.55032)"/><path d="m1533.134-885.274-17.5-17.43 3.399 13.744 5.757 5.734z" style="fill:#515b60;fill-opacity:1;stroke:none;stroke-width:.170933;stroke-linecap:round;stroke-linejoin:bevel;stroke-miterlimit:4;stroke-dasharray:none;stroke-opacity:1" transform="translate(-2349.716 1405.068)scale(1.55032)"/></g></g></g></svg>
